<?xml version="1.0" encoding="utf-8"?>
<!-- Generator: Adobe Illustrator 26.0.1, SVG Export Plug-In . SVG Version: 6.00 Build 0)  -->
<svg version="1.1" id="Layer_1" xmlns="http://www.w3.org/2000/svg" xmlns:xlink="http://www.w3.org/1999/xlink" x="0px" y="0px"
	 viewBox="0 0 180 180" style="enable-background:new 0 0 180 180;" xml:space="preserve">
<style type="text/css">
	.st0{fill:#F3C0BC;}
</style>
<path class="st0" d="M70.41,179.93c0-6.59,0-12.15,0-17.71c0-20.21-0.06-40.42,0.06-60.62c0.02-2.85-0.77-3.83-3.64-3.76
	c-6.65,0.15-13.31-0.06-19.96,0.09c-2.87,0.07-3.78-1.01-3.74-3.8c0.13-8.35,0.14-16.7-0.01-25.05c-0.05-3.04,1.05-3.97,4.02-3.9
	c7.59,0.17,15.19,0.06,23.26,0.06c0-5.3-0.05-10.22,0.01-15.14c0.1-8.19-0.59-16.38,2.19-24.41c5.63-16.23,18.4-25.58,35.6-25.58
	c8.23,0,16.46,0.09,24.68-0.04c2.94-0.05,4.06,0.87,3.98,3.94c-0.18,7.5-0.19,15.01,0,22.5c0.08,3.12-1.14,3.97-4.03,3.89
	c-5.56-0.15-11.13-0.1-16.7-0.02c-6.89,0.1-11.56,4.28-11.86,11.09c-0.31,7.13-0.06,14.28-0.17,21.41
	c-0.04,2.57,1.56,2.58,3.35,2.58c7.87,0,15.73-0.02,23.6,0.02c1.53,0.01,3.06,0.21,4.97,0.35c-1.05,8-1.89,15.65-3.1,23.24
	c-1.41,8.85-1.56,8.82-10.75,8.82c-4.6,0-9.2,0.17-13.79-0.06c-3.25-0.16-4.35,0.83-4.33,4.25c0.14,24.2,0.08,48.4,0.08,72.6
	c0,5.23-0.01,5.24-5.11,5.25C89.64,179.94,80.24,179.93,70.41,179.93z"/>
</svg>
