<?xml version="1.0" encoding="utf-8"?>
<!-- Generator: Adobe Illustrator 26.0.1, SVG Export Plug-In . SVG Version: 6.00 Build 0)  -->
<svg version="1.1" id="Layer_1" xmlns="http://www.w3.org/2000/svg" xmlns:xlink="http://www.w3.org/1999/xlink" x="0px" y="0px"
	 viewBox="0 0 180 180" style="enable-background:new 0 0 180 180;" xml:space="preserve">
<style type="text/css">
	.st0{fill:#F3C0BC;}
	.st1{fill:#F8941D;}
</style>
<path class="st0" d="M180,44.89c0-3.21-0.36-6.39-1.08-9.52c-4.84-20.97-22.84-35.33-44.33-35.34C105.09,0.01,75.59,0.01,46.1,0
	c-2.47,0-4.93,0.1-7.38,0.46C30,1.72,22.23,5.19,15.65,11.01C5.21,20.25,0.03,31.97,0.03,45.96c0,19.01-0.01,38.02-0.01,57.04
	c0,2.44,0.03,4.87,0.05,7.31C0.04,110.58,0,110.86,0,111.14c0,7.66,0,15.32,0.03,22.98c0.01,2.89,0.26,5.77,0.83,8.61
	c4.35,21.49,22.75,36.55,44.65,36.55c29.7,0,59.39,0,89.09,0c3.88,0,7.7-0.44,11.45-1.42c4.04-1.06,7.93-2.51,11.48-4.79
	c0.07-0.03,0.14-0.06,0.2-0.08c0.04-0.28,0.21-0.35,0.46-0.31c0.24-0.13,0.49-0.26,0.73-0.41c9.82-6.3,16.28-15.1,19.48-26.31
	c0.55-1.91,0.89-3.87,1.08-5.86c0.19-2.03,0.53-4.05,0.53-6.1C180,104.29,180,74.59,180,44.89z M166.13,131.12
	c-0.08,13.62-6.46,23.81-18.1,30.75c-0.18,0.11-0.35,0.22-0.53,0.33c-3.21,1.52-6.5,2.82-10.01,3.44c-1.85,0.33-3.71,0.56-5.59,0.57
	c-5.04,0.01-10.09-0.16-15.13,0.07c-13.87,0.62-27.74,0.2-41.6,0.31c-3.47,0.03-6.95-0.04-10.42-0.19
	c-5.66-0.24-11.32-0.11-16.98-0.2c-4.9-0.08-9.46-1.5-13.88-3.52c-1.53-0.7-3.05-1.43-4.48-2.31c-0.87-0.53-1.64-1.24-2.4-1.93
	c-3.21-2.96-6.28-6.1-8.37-9.96c-2.03-3.76-3.38-7.81-4.13-12.07c-0.37-2.13-0.34-4.23-0.35-6.35c-0.02-7.17-0.03-14.34-0.04-21.52
	c0.01-2.37,0.04-4.73,0.04-7.1c0-17.27-0.04-34.54,0.01-51.81c0.03-11.56,4.74-20.9,13.7-28.15c4.38-3.54,9.44-5.59,14.87-6.74
	c1.91-0.4,3.91-0.54,5.9-0.54c27.68,0.01,55.37,0.01,83.06-0.02c2.18,0,4.38,0.1,6.45,0.57c3.46,0.79,6.82,2.04,9.93,3.83
	c9.89,5.71,15.76,14.22,17.71,25.45c0.29,1.67,0.38,3.38,0.38,5.08C166.17,76.45,166.29,103.79,166.13,131.12z"/>
<path class="st1" d="M158.19,172.67c-0.09,0.19-0.27,0.26-0.46,0.31C157.77,172.7,157.94,172.63,158.19,172.67z"/>
<path class="st0" d="M131.68,67.4c-6.13-10.97-15.27-18.41-27.25-22.15c-11.95-3.73-23.63-2.7-34.9,2.73
	c-4.48,2.16-8.53,4.99-12.04,8.52c-10.44,10.5-15.18,23.14-14.11,37.94c0.05,1.5,0.32,2.97,0.57,4.44
	c4.06,23.16,25.23,39.97,48.76,38.72c10.95-0.58,20.54-4.5,28.83-11.64c0.56-0.49,1.23-0.9,1.57-1.61c0.6-0.56,1.24-1.09,1.8-1.69
	C138.96,107.69,141.73,85.37,131.68,67.4z M102.71,119.63c-6.87,2.93-13.94,3.55-21.1,1.44c-11.4-3.35-18.74-10.88-22.16-22.27
	c-0.06-0.2-0.14-0.39-0.21-0.59c-1.67-7.33-1.24-14.53,2.15-21.27c6.06-12.06,15.99-18.49,29.48-18.15
	c13.54,0.34,23.33,7.19,28.54,19.7c4.61,11.07,2.88,21.66-4.15,31.37c-0.1,0.14-0.2,0.28-0.3,0.43
	C111.58,114.34,107.58,117.55,102.71,119.63z"/>
<path class="st0" d="M150.19,40.81c0,5.88-4.81,10.67-10.69,10.67c-5.89,0-10.68-4.79-10.69-10.68c-0.01-5.84,4.86-10.69,10.7-10.68
	C145.39,30.14,150.19,34.95,150.19,40.81z"/>
</svg>
